<?xml version="1.0" encoding="UTF-8"?><svg id="Capa_1" xmlns="http://www.w3.org/2000/svg" viewBox="0 0 905.85 224.13"><defs><style>.cls-1{fill:#83b81a;}</style></defs><path class="cls-1" d="M107.77,2.25H2.75s-.02,0-.04,0c-.01,0-.03,0-.04,0C1.23,2.28,.08,3.42,.01,4.85c0,.04-.01,.08-.01,.12s.01,.08,.01,.12V221.48c.02,1.45,1.2,2.62,2.65,2.65H107.77c44.34,0,76.33-54.97,74.33-110.94C184.11,57.22,152.11,2.25,107.77,2.25m-10.42,175s-17.41,1.34-25.3,1.34h-22.49c-1.48,0-2.68-1.19-2.7-2.66,0-.02,0-.03,0-.05v-.05s0-62.65,0-62.65V50.53s0-.03,0-.05v-.05c.03-1.41,1.12-2.55,2.51-2.65,.07,0,.13-.02,.2-.02s.13,.01,.2,.02h21.16c3.82,.01,14.24,.09,21.6,.74,1.58,.2,3.18,.4,4.83,.59,17.95,3.81,32.27,17.09,33.71,64.06-1.44,46.98-15.76,60.25-33.71,64.06"/><path class="cls-1" d="M389.08,172.52s0-.06,0-.09c-.04-1.05-.66-1.94-1.55-2.37l-.1-.04-85.8-34.59c45.72,2.47,68.57-.67,83.32-46.27,.3-1.21,.64-3.05,.95-4.85,0-.04,.02-.08,.03-.12,.38-2.16,.69-4.2,.81-4.89,0-.1,.02-.17,.02-.26C389.46,56.32,386.05,.07,331.78,.07h-119.38s-.08-.01-.13-.01-.09,.01-.13,.01c-1.43,.07-2.56,1.22-2.6,2.66,0,.01,0,.04,0,.04,0,.04,0,.06,0,.06V42.78c-.01,.09-.03,.18-.03,.28,0,.09,.02,.18,.03,.28,.13,1.29,1.15,2.31,2.45,2.43,.09,0,.17,.03,.26,.03s.18-.02,.26-.03h84.86c13.95,0,23.92,3.09,25.77,3.7,20.7,8.37,19.71,37.34-2.56,37.91l-54.26,.08c-37.83-.47-56.66,21.41-58.15,63.68v70.16s0,.02,0,.02v.14s0,.02,0,.03c.05,1.43,1.18,2.57,2.61,2.63,.04,0,.07,0,.11,0s.07,0,.11,0h41.94s.08,0,.11,0c.04,0,.08,0,.11,0,1.36-.06,2.46-1.11,2.6-2.46,0-.09,.03-.18,.03-.27,0-.09-.02-.18-.03-.28v-52.14l129.47,53.56,.09,.04c.31,.12,.65,.2,1,.2,1.48,0,2.68-1.18,2.73-2.65,0-.03,0-.06,0-.09s0-.06,0-.09v-47.33s0-.06,0-.09"/><path class="cls-1" d="M463.95,.07c-.05,0-.1-.02-.16-.02h-.26c-.05,0-.11,.02-.17,.02h-43.07c-1.35,.07-2.44,1.11-2.57,2.44-.01,.08-.02,.15-.02,.22v.13c0,.07,.01,.14,.02,.21V221.11c-.01,.07-.02,.14-.02,.21v.14c0,.07,.01,.14,.02,.21,.14,1.38,1.29,2.46,2.7,2.46,.05,0,.1-.01,.16-.02h0s0,.01-.01,.02h43.09c.55-.01,1.05-.18,1.48-.46,.71-.47,1.18-1.27,1.21-2.18h.01v-77.02h0V3.05c.01-.09,.03-.18,.03-.27s-.02-.19-.03-.28c-.13-1.28-1.14-2.28-2.42-2.42"/><path class="cls-1" d="M672.55,.05c-.11-.02-.21-.04-.33-.05h-.26c-.12,0-.23,.03-.34,.05h-42.3c-.11-.02-.22-.04-.33-.05h-.25c-.11,0-.22,.03-.34,.05-1.21,.21-2.13,1.2-2.24,2.43,0,.06-.02,.11-.02,.18v.13c0,.06,.01,.12,.02,.17V98.87s-1.64,20.38-2.11,22.5h0c-7.39,35.77-26.12,53.64-56.32,53.34h-71.36s-.06,0-.1-.01h-.26s-.06,0-.09,.01c-1.36,.11-2.43,1.2-2.5,2.57,0,.03,0,.05,0,.05v.16s0,.04,0,.06v43.71s0,.04,0,.04v.16s0,.04,0,.06c.07,1.37,1.13,2.46,2.49,2.58,.08,0,.16,.03,.24,.03s.15-.02,.23-.03h86.12c53.05-1.71,86.68-31.16,92.3-91.16V2.99c0-.09,.03-.18,.03-.26,0-.1-.02-.19-.03-.28-.12-1.22-1.05-2.2-2.25-2.4"/><path class="cls-1" d="M903.57,205.79c-7.05-17.64-83.95-197.19-83.95-197.19,0,0-2.64-7.94-9.7-7.94h-32.63s-4.06-.17-7.06,10.22c-3,10.41-61.21,143.13-61.21,143.13,0,0-5.82,11.02,6.89,11.02h32.8s3.7,1.06,6.88-7.05c3.17-8.11,38.09-93.49,38.09-93.49l52.38,116.94h-147.1s-1.24-.7-2.82,1.94c-1.59,2.65-12.35,32.45-12.35,32.45,0,0-3.53,8.29,5.65,8.29h209.54s11.64-.71,4.58-18.34"/></svg>